<svg xmlns="http://www.w3.org/2000/svg" xmlns:xlink="http://www.w3.org/1999/xlink" width="3000" zoomAndPan="magnify" viewBox="0 0 2250 1349.999938" height="1800" preserveAspectRatio="xMidYMid meet" version="1.0"><defs><g/><clipPath id="89ef74d838"><rect x="0" width="876" y="0" height="377"/></clipPath><clipPath id="a40a8a5048"><path d="M 1025.785156 533 L 1261 533 L 1261 768 L 1025.785156 768 Z M 1025.785156 533 " clip-rule="nonzero"/></clipPath><clipPath id="53ce884d01"><path d="M 1025.035156 582.457031 L 1025.035156 718.574219 C 1025.035156 746.328125 1047.53125 768.824219 1075.285156 768.824219 L 1211.402344 768.824219 C 1239.152344 768.824219 1261.652344 746.328125 1261.652344 718.574219 L 1261.652344 582.457031 C 1261.652344 554.707031 1239.152344 532.207031 1211.402344 532.207031 L 1075.285156 532.207031 C 1047.53125 532.207031 1025.035156 554.707031 1025.035156 582.457031 Z M 1025.035156 582.457031 " clip-rule="nonzero"/></clipPath><clipPath id="30a3339a11"><path d="M 1076.183594 533.109375 L 1210.5 533.109375 C 1238.253906 533.109375 1260.75 555.605469 1260.75 583.359375 L 1260.75 717.675781 C 1260.75 745.425781 1238.253906 767.925781 1210.5 767.925781 L 1076.183594 767.925781 C 1048.433594 767.925781 1025.933594 745.425781 1025.933594 717.675781 L 1025.933594 583.359375 C 1025.933594 555.605469 1048.433594 533.109375 1076.183594 533.109375 Z M 1076.183594 533.109375 " clip-rule="nonzero"/></clipPath><clipPath id="f664f7fbfa"><path d="M 1025.035156 532.207031 L 1261.285156 532.207031 L 1261.285156 768.457031 L 1025.035156 768.457031 Z M 1025.035156 532.207031 " clip-rule="nonzero"/></clipPath><clipPath id="84bdae5263"><path d="M 1025.035156 582.457031 L 1025.035156 718.574219 C 1025.035156 746.328125 1047.53125 768.824219 1075.285156 768.824219 L 1211.402344 768.824219 C 1239.152344 768.824219 1261.652344 746.328125 1261.652344 718.574219 L 1261.652344 582.457031 C 1261.652344 554.707031 1239.152344 532.207031 1211.402344 532.207031 L 1075.285156 532.207031 C 1047.53125 532.207031 1025.035156 554.707031 1025.035156 582.457031 Z M 1025.035156 582.457031 " clip-rule="nonzero"/></clipPath><clipPath id="73c81c5125"><path d="M 1025.035156 582.457031 L 1025.035156 718.574219 C 1025.035156 746.324219 1047.53125 768.820312 1075.285156 768.820312 L 1211.398438 768.820312 C 1239.148438 768.820312 1261.648438 746.324219 1261.648438 718.574219 L 1261.648438 582.457031 C 1261.648438 554.707031 1239.148438 532.207031 1211.398438 532.207031 L 1075.285156 532.207031 C 1047.53125 532.207031 1025.035156 554.707031 1025.035156 582.457031 Z M 1025.035156 582.457031 " clip-rule="nonzero"/></clipPath><clipPath id="cf1869bc7c"><path d="M 1134.683594 918.398438 L 1152 918.398438 L 1152 935.714844 L 1134.683594 935.714844 Z M 1134.683594 918.398438 " clip-rule="nonzero"/></clipPath><clipPath id="20d0120839"><path d="M 1143.34375 918.398438 C 1138.5625 918.398438 1134.683594 922.277344 1134.683594 927.058594 C 1134.683594 931.839844 1138.5625 935.714844 1143.34375 935.714844 C 1148.125 935.714844 1152 931.839844 1152 927.058594 C 1152 922.277344 1148.125 918.398438 1143.34375 918.398438 Z M 1143.34375 918.398438 " clip-rule="nonzero"/></clipPath><clipPath id="5420bc56d1"><path d="M 0.683594 0.398438 L 18 0.398438 L 18 17.714844 L 0.683594 17.714844 Z M 0.683594 0.398438 " clip-rule="nonzero"/></clipPath><clipPath id="50f3830709"><path d="M 9.34375 0.398438 C 4.5625 0.398438 0.683594 4.277344 0.683594 9.058594 C 0.683594 13.839844 4.5625 17.714844 9.34375 17.714844 C 14.125 17.714844 18 13.839844 18 9.058594 C 18 4.277344 14.125 0.398438 9.34375 0.398438 Z M 9.34375 0.398438 " clip-rule="nonzero"/></clipPath><clipPath id="dbf8d1996f"><rect x="0" width="18" y="0" height="18"/></clipPath><clipPath id="a146b7449a"><rect x="0" width="650" y="0" height="377"/></clipPath></defs><g transform="matrix(1, 0, 0, 1, 378, 462)"><g clip-path="url(#89ef74d838)"><g fill="#000000" fill-opacity="1"><g transform="translate(0.811308, 301.501298)"><g><path d="M 161.796875 -189.296875 C 158.171875 -193.347656 154.117188 -196.914062 149.640625 -200 C 145.160156 -203.09375 140.363281 -205.648438 135.25 -207.671875 C 130.132812 -209.703125 124.59375 -211.25 118.625 -212.3125 C 112.65625 -213.375 106.257812 -213.90625 99.4375 -213.90625 C 77.269531 -213.90625 61.125 -209.695312 51 -201.28125 C 40.875 -192.863281 35.8125 -181.515625 35.8125 -167.234375 C 35.8125 -157.640625 38.101562 -150.015625 42.6875 -144.359375 C 47.269531 -138.710938 54.460938 -134.179688 64.265625 -130.765625 C 74.078125 -127.359375 86.757812 -124.054688 102.3125 -120.859375 C 118.726562 -117.453125 132.90625 -113.457031 144.84375 -108.875 C 156.78125 -104.289062 166 -98.054688 172.5 -90.171875 C 179 -82.285156 182.25 -71.625 182.25 -58.1875 C 182.25 -48.175781 180.332031 -39.382812 176.5 -31.8125 C 172.664062 -24.25 167.125 -18.015625 159.875 -13.109375 C 152.625 -8.203125 144.039062 -4.46875 134.125 -1.90625 C 124.21875 0.644531 113.191406 1.921875 101.046875 1.921875 C 89.316406 1.921875 78.125 0.644531 67.46875 -1.90625 C 56.8125 -4.46875 46.789062 -8.203125 37.40625 -13.109375 C 28.03125 -18.015625 19.289062 -24.300781 11.1875 -31.96875 L 19.828125 -45.078125 C 24.515625 -39.960938 29.785156 -35.429688 35.640625 -31.484375 C 41.503906 -27.546875 47.898438 -24.191406 54.828125 -21.421875 C 61.765625 -18.648438 69.175781 -16.460938 77.0625 -14.859375 C 84.945312 -13.265625 93.15625 -12.46875 101.6875 -12.46875 C 121.507812 -12.46875 137.015625 -16.144531 148.203125 -23.5 C 159.390625 -30.851562 164.984375 -41.78125 164.984375 -56.28125 C 164.984375 -66.289062 162.425781 -74.382812 157.3125 -80.5625 C 152.195312 -86.75 144.3125 -91.816406 133.65625 -95.765625 C 123 -99.710938 109.675781 -103.390625 93.6875 -106.796875 C 77.695312 -110.203125 64.101562 -114.035156 52.90625 -118.296875 C 41.71875 -122.566406 33.300781 -128.328125 27.65625 -135.578125 C 22.007812 -142.828125 19.1875 -152.628906 19.1875 -164.984375 C 19.1875 -178.628906 22.539062 -190.191406 29.25 -199.671875 C 35.96875 -209.160156 45.398438 -216.359375 57.546875 -221.265625 C 69.703125 -226.171875 83.664062 -228.625 99.4375 -228.625 C 109.25 -228.625 118.363281 -227.660156 126.78125 -225.734375 C 135.195312 -223.816406 142.972656 -220.882812 150.109375 -216.9375 C 157.253906 -213 163.921875 -208.046875 170.109375 -202.078125 Z M 161.796875 -189.296875 "/></g></g></g><g fill="#000000" fill-opacity="1"><g transform="translate(331.433197, 301.501298)"><g><path d="M 188.328125 -212.3125 L 105.203125 -212.3125 L 105.203125 0 L 88.890625 0 L 88.890625 -212.3125 L 5.75 -212.3125 L 5.75 -227.015625 L 188.328125 -227.015625 Z M 188.328125 -212.3125 "/></g></g></g><g fill="#000000" fill-opacity="1"><g transform="translate(654.066806, 301.501298)"><g/></g></g></g></g><g clip-path="url(#a40a8a5048)"><g clip-path="url(#53ce884d01)"><g clip-path="url(#30a3339a11)"><path fill="#b8925a" d="M 1234.839844 768.820312 L 1051.828125 768.820312 C 1050.949219 768.820312 1050.074219 768.777344 1049.203125 768.691406 C 1048.328125 768.601562 1047.460938 768.472656 1046.601562 768.300781 C 1045.742188 768.128906 1044.890625 767.914062 1044.050781 767.660156 C 1043.210938 767.402344 1042.386719 767.109375 1041.578125 766.773438 C 1040.765625 766.433594 1039.976562 766.058594 1039.199219 765.644531 C 1038.425781 765.230469 1037.675781 764.78125 1036.945312 764.292969 C 1036.21875 763.804688 1035.511719 763.28125 1034.835938 762.726562 C 1034.15625 762.167969 1033.507812 761.578125 1032.886719 760.960938 C 1032.269531 760.339844 1031.679688 759.6875 1031.121094 759.011719 C 1030.566406 758.332031 1030.042969 757.628906 1029.554688 756.898438 C 1029.070312 756.167969 1028.617188 755.417969 1028.203125 754.644531 C 1027.789062 753.871094 1027.414062 753.078125 1027.078125 752.265625 C 1026.742188 751.457031 1026.449219 750.632812 1026.191406 749.792969 C 1025.9375 748.953125 1025.726562 748.101562 1025.554688 747.242188 C 1025.382812 746.382812 1025.253906 745.515625 1025.164062 744.640625 C 1025.078125 743.769531 1025.035156 742.894531 1025.035156 742.015625 L 1025.035156 559.003906 C 1025.035156 558.125 1025.078125 557.25 1025.167969 556.378906 C 1025.253906 555.503906 1025.382812 554.636719 1025.554688 553.777344 C 1025.726562 552.917969 1025.941406 552.066406 1026.195312 551.226562 C 1026.453125 550.390625 1026.746094 549.5625 1027.082031 548.753906 C 1027.417969 547.945312 1027.792969 547.152344 1028.207031 546.378906 C 1028.621094 545.605469 1029.074219 544.855469 1029.5625 544.125 C 1030.046875 543.394531 1030.570312 542.691406 1031.128906 542.015625 C 1031.683594 541.335938 1032.273438 540.6875 1032.890625 540.066406 C 1033.511719 539.445312 1034.160156 538.859375 1034.839844 538.300781 C 1035.519531 537.746094 1036.222656 537.222656 1036.949219 536.734375 C 1037.679688 536.246094 1038.429688 535.796875 1039.203125 535.382812 C 1039.976562 534.96875 1040.769531 534.59375 1041.582031 534.257812 C 1042.390625 533.921875 1043.214844 533.625 1044.054688 533.371094 C 1044.894531 533.113281 1045.742188 532.902344 1046.601562 532.730469 C 1047.464844 532.558594 1048.328125 532.429688 1049.203125 532.339844 C 1050.074219 532.253906 1050.949219 532.210938 1051.828125 532.207031 L 1234.839844 532.207031 C 1235.71875 532.210938 1236.59375 532.253906 1237.46875 532.339844 C 1238.339844 532.425781 1239.207031 532.554688 1240.066406 532.726562 C 1240.929688 532.898438 1241.777344 533.113281 1242.617188 533.367188 C 1243.457031 533.621094 1244.28125 533.917969 1245.09375 534.253906 C 1245.902344 534.589844 1246.695312 534.964844 1247.46875 535.378906 C 1248.242188 535.792969 1248.996094 536.242188 1249.726562 536.730469 C 1250.453125 537.21875 1251.160156 537.738281 1251.835938 538.296875 C 1252.515625 538.851562 1253.164062 539.441406 1253.785156 540.0625 C 1254.40625 540.683594 1254.996094 541.332031 1255.550781 542.007812 C 1256.109375 542.6875 1256.628906 543.390625 1257.117188 544.121094 C 1257.605469 544.851562 1258.058594 545.601562 1258.472656 546.375 C 1258.886719 547.148438 1259.261719 547.941406 1259.597656 548.75 C 1259.933594 549.5625 1260.230469 550.386719 1260.484375 551.226562 C 1260.742188 552.066406 1260.953125 552.914062 1261.125 553.777344 C 1261.296875 554.636719 1261.429688 555.503906 1261.515625 556.375 C 1261.601562 557.25 1261.648438 558.125 1261.648438 559.003906 L 1261.648438 742.015625 C 1261.648438 742.894531 1261.601562 743.769531 1261.515625 744.640625 C 1261.429688 745.515625 1261.300781 746.382812 1261.128906 747.242188 C 1260.957031 748.105469 1260.742188 748.953125 1260.488281 749.792969 C 1260.234375 750.632812 1259.9375 751.460938 1259.601562 752.269531 C 1259.265625 753.082031 1258.890625 753.875 1258.476562 754.648438 C 1258.0625 755.421875 1257.609375 756.171875 1257.125 756.902344 C 1256.636719 757.632812 1256.113281 758.335938 1255.554688 759.015625 C 1255 759.695312 1254.410156 760.34375 1253.789062 760.964844 C 1253.167969 761.585938 1252.519531 762.171875 1251.839844 762.730469 C 1251.164062 763.285156 1250.457031 763.808594 1249.730469 764.296875 C 1249 764.785156 1248.246094 765.234375 1247.472656 765.648438 C 1246.699219 766.0625 1245.90625 766.4375 1245.097656 766.773438 C 1244.285156 767.113281 1243.460938 767.40625 1242.621094 767.664062 C 1241.78125 767.917969 1240.929688 768.132812 1240.070312 768.304688 C 1239.207031 768.476562 1238.339844 768.605469 1237.46875 768.691406 C 1236.59375 768.777344 1235.71875 768.820312 1234.839844 768.820312 Z M 1051.828125 538.671875 C 1051.164062 538.675781 1050.5 538.707031 1049.835938 538.773438 C 1049.175781 538.839844 1048.515625 538.9375 1047.863281 539.070312 C 1047.210938 539.199219 1046.566406 539.363281 1045.929688 539.558594 C 1045.292969 539.75 1044.667969 539.976562 1044.054688 540.230469 C 1043.441406 540.484375 1042.839844 540.769531 1042.253906 541.085938 C 1041.664062 541.398438 1041.09375 541.742188 1040.542969 542.109375 C 1039.988281 542.480469 1039.457031 542.875 1038.941406 543.296875 C 1038.425781 543.722656 1037.933594 544.167969 1037.464844 544.636719 C 1036.992188 545.109375 1036.546875 545.601562 1036.125 546.117188 C 1035.703125 546.628906 1035.304688 547.164062 1034.9375 547.714844 C 1034.566406 548.269531 1034.222656 548.839844 1033.910156 549.425781 C 1033.597656 550.011719 1033.3125 550.613281 1033.054688 551.226562 C 1032.800781 551.84375 1032.578125 552.46875 1032.382812 553.105469 C 1032.1875 553.742188 1032.027344 554.386719 1031.894531 555.039062 C 1031.765625 555.691406 1031.667969 556.347656 1031.601562 557.011719 C 1031.535156 557.671875 1031.5 558.335938 1031.5 559.003906 L 1031.5 742.015625 C 1031.5 742.679688 1031.535156 743.34375 1031.597656 744.007812 C 1031.664062 744.671875 1031.761719 745.328125 1031.894531 745.980469 C 1032.023438 746.632812 1032.1875 747.277344 1032.378906 747.914062 C 1032.574219 748.550781 1032.796875 749.179688 1033.050781 749.792969 C 1033.308594 750.410156 1033.59375 751.007812 1033.90625 751.597656 C 1034.21875 752.183594 1034.5625 752.753906 1034.933594 753.308594 C 1035.300781 753.859375 1035.699219 754.394531 1036.121094 754.910156 C 1036.542969 755.425781 1036.988281 755.917969 1037.460938 756.386719 C 1037.929688 756.859375 1038.421875 757.304688 1038.9375 757.726562 C 1039.453125 758.152344 1039.984375 758.546875 1040.539062 758.917969 C 1041.089844 759.289062 1041.660156 759.628906 1042.25 759.945312 C 1042.835938 760.257812 1043.4375 760.542969 1044.050781 760.796875 C 1044.664062 761.054688 1045.292969 761.277344 1045.929688 761.472656 C 1046.566406 761.667969 1047.210938 761.828125 1047.863281 761.960938 C 1048.515625 762.089844 1049.171875 762.191406 1049.835938 762.253906 C 1050.5 762.320312 1051.164062 762.355469 1051.828125 762.355469 L 1234.839844 762.355469 C 1235.507812 762.355469 1236.171875 762.324219 1236.835938 762.257812 C 1237.496094 762.191406 1238.15625 762.09375 1238.808594 761.960938 C 1239.460938 761.832031 1240.105469 761.667969 1240.742188 761.476562 C 1241.378906 761.28125 1242.007812 761.058594 1242.621094 760.800781 C 1243.238281 760.546875 1243.839844 760.261719 1244.425781 759.949219 C 1245.011719 759.632812 1245.582031 759.292969 1246.136719 758.921875 C 1246.691406 758.550781 1247.226562 758.15625 1247.738281 757.734375 C 1248.253906 757.308594 1248.746094 756.863281 1249.21875 756.390625 C 1249.6875 755.921875 1250.136719 755.429688 1250.558594 754.914062 C 1250.980469 754.398438 1251.378906 753.863281 1251.746094 753.3125 C 1252.117188 752.757812 1252.460938 752.1875 1252.773438 751.601562 C 1253.089844 751.011719 1253.375 750.410156 1253.628906 749.796875 C 1253.882812 749.179688 1254.109375 748.554688 1254.300781 747.917969 C 1254.496094 747.28125 1254.65625 746.636719 1254.789062 745.980469 C 1254.917969 745.328125 1255.015625 744.671875 1255.082031 744.007812 C 1255.148438 743.347656 1255.183594 742.679688 1255.183594 742.015625 L 1255.183594 559.003906 C 1255.183594 558.335938 1255.148438 557.671875 1255.082031 557.011719 C 1255.015625 556.347656 1254.917969 555.691406 1254.785156 555.035156 C 1254.65625 554.382812 1254.492188 553.738281 1254.300781 553.101562 C 1254.105469 552.464844 1253.878906 551.839844 1253.625 551.226562 C 1253.371094 550.609375 1253.085938 550.007812 1252.769531 549.421875 C 1252.457031 548.835938 1252.113281 548.265625 1251.742188 547.710938 C 1251.375 547.160156 1250.976562 546.625 1250.554688 546.109375 C 1250.132812 545.597656 1249.683594 545.105469 1249.214844 544.632812 C 1248.742188 544.164062 1248.25 543.714844 1247.734375 543.292969 C 1247.222656 542.871094 1246.6875 542.476562 1246.132812 542.105469 C 1245.578125 541.734375 1245.007812 541.394531 1244.421875 541.078125 C 1243.835938 540.765625 1243.234375 540.480469 1242.621094 540.226562 C 1242.003906 539.972656 1241.378906 539.746094 1240.742188 539.554688 C 1240.105469 539.359375 1239.460938 539.199219 1238.804688 539.066406 C 1238.152344 538.9375 1237.496094 538.839844 1236.832031 538.773438 C 1236.171875 538.707031 1235.507812 538.675781 1234.839844 538.671875 Z M 1051.828125 538.671875 " fill-opacity="1" fill-rule="nonzero"/></g></g></g><g clip-path="url(#f664f7fbfa)"><g clip-path="url(#84bdae5263)"><g clip-path="url(#73c81c5125)"><path stroke-linecap="butt" transform="matrix(0.75, 0, 0, 0.75, 1025.034466, 532.208549)" fill="none" stroke-linejoin="miter" d="M 0.000920492 66.997982 L 0.000920492 248.487581 C 0.000920492 285.487584 29.995715 315.482378 67.000926 315.482378 L 248.485317 315.482378 C 285.48532 315.482378 315.485323 285.487584 315.485323 248.487581 L 315.485323 66.997982 C 315.485323 29.997978 285.48532 -0.00202418 248.485317 -0.00202418 L 67.000926 -0.00202418 C 29.995715 -0.00202418 0.000920492 29.997978 0.000920492 66.997982 Z M 0.000920492 66.997982 " stroke="#b8925a" stroke-width="54" stroke-opacity="1" stroke-miterlimit="4"/></g></g></g><g fill="#000000" fill-opacity="1"><g transform="translate(674.287523, 946.558025)"><g><path d="M 5.15625 0 L 5.15625 -41.125 L 9.21875 -41.125 L 9.21875 -17.21875 L 31.90625 -41.1875 L 36.359375 -41.1875 L 19.546875 -23.078125 L 37.234375 0 L 32.65625 0 L 16.9375 -20.640625 L 9.21875 -12.640625 L 9.21875 0 Z M 5.15625 0 "/></g></g></g><g fill="#000000" fill-opacity="1"><g transform="translate(743.131019, 946.558025)"><g><path d="M 21.921875 0.296875 C 18.671875 0.296875 15.925781 -0.28125 13.6875 -1.4375 C 11.445312 -2.601562 9.664062 -4.160156 8.34375 -6.109375 C 7.03125 -8.066406 6.070312 -10.28125 5.46875 -12.75 C 4.875 -15.226562 4.578125 -17.785156 4.578125 -20.421875 L 4.578125 -41.1875 L 8.578125 -41.1875 L 8.578125 -20.421875 C 8.578125 -18.285156 8.800781 -16.191406 9.25 -14.140625 C 9.695312 -12.097656 10.421875 -10.265625 11.421875 -8.640625 C 12.429688 -7.015625 13.785156 -5.726562 15.484375 -4.78125 C 17.179688 -3.832031 19.304688 -3.359375 21.859375 -3.359375 C 24.492188 -3.359375 26.671875 -3.851562 28.390625 -4.84375 C 30.109375 -5.832031 31.460938 -7.132812 32.453125 -8.75 C 33.441406 -10.375 34.144531 -12.203125 34.5625 -14.234375 C 34.988281 -16.265625 35.203125 -18.328125 35.203125 -20.421875 L 35.203125 -41.1875 L 39.265625 -41.1875 L 39.265625 -20.421875 C 39.265625 -17.671875 38.953125 -15.039062 38.328125 -12.53125 C 37.710938 -10.019531 36.71875 -7.816406 35.34375 -5.921875 C 33.976562 -4.023438 32.191406 -2.515625 29.984375 -1.390625 C 27.785156 -0.265625 25.097656 0.296875 21.921875 0.296875 Z M 15.9375 -47.5625 L 15.9375 -53.015625 L 19.3125 -53.015625 L 19.3125 -47.5625 Z M 24.59375 -47.5625 L 24.59375 -53.015625 L 27.953125 -53.015625 L 27.953125 -47.5625 Z M 24.59375 -47.5625 "/></g></g></g><g fill="#000000" fill-opacity="1"><g transform="translate(818.470089, 946.558025)"><g><path d="M 2.4375 -20.875 C 2.4375 -23.394531 2.867188 -25.863281 3.734375 -28.28125 C 4.609375 -30.695312 5.875 -32.898438 7.53125 -34.890625 C 9.195312 -36.878906 11.25 -38.460938 13.6875 -39.640625 C 16.125 -40.816406 18.890625 -41.40625 21.984375 -41.40625 C 25.648438 -41.40625 28.789062 -40.5625 31.40625 -38.875 C 34.019531 -37.195312 35.941406 -35.046875 37.171875 -32.421875 L 33.984375 -30.453125 C 33.097656 -32.265625 31.976562 -33.703125 30.625 -34.765625 C 29.269531 -35.828125 27.828125 -36.59375 26.296875 -37.0625 C 24.773438 -37.53125 23.257812 -37.765625 21.75 -37.765625 C 19.269531 -37.765625 17.082031 -37.269531 15.1875 -36.28125 C 13.300781 -35.289062 11.707031 -33.972656 10.40625 -32.328125 C 9.113281 -30.691406 8.140625 -28.859375 7.484375 -26.828125 C 6.828125 -24.796875 6.5 -22.734375 6.5 -20.640625 C 6.5 -18.359375 6.882812 -16.175781 7.65625 -14.09375 C 8.425781 -12.007812 9.503906 -10.160156 10.890625 -8.546875 C 12.285156 -6.941406 13.921875 -5.664062 15.796875 -4.71875 C 17.679688 -3.78125 19.722656 -3.3125 21.921875 -3.3125 C 23.472656 -3.3125 25.054688 -3.582031 26.671875 -4.125 C 28.296875 -4.664062 29.8125 -5.492188 31.21875 -6.609375 C 32.632812 -7.734375 33.769531 -9.1875 34.625 -10.96875 L 37.984375 -9.21875 C 37.140625 -7.164062 35.828125 -5.425781 34.046875 -4 C 32.265625 -2.570312 30.28125 -1.488281 28.09375 -0.75 C 25.914062 -0.0195312 23.78125 0.34375 21.6875 0.34375 C 18.863281 0.34375 16.269531 -0.265625 13.90625 -1.484375 C 11.550781 -2.703125 9.515625 -4.320312 7.796875 -6.34375 C 6.078125 -8.375 4.753906 -10.65625 3.828125 -13.1875 C 2.898438 -15.726562 2.4375 -18.289062 2.4375 -20.875 Z M 2.4375 -20.875 "/></g></g></g><g fill="#000000" fill-opacity="1"><g transform="translate(889.807424, 946.558025)"><g><path d="M 37.640625 -41.1875 L 37.640625 0 L 33.640625 0 L 33.640625 -19.25 L 9.21875 -19.25 L 9.21875 0 L 5.15625 0 L 5.15625 -41.1875 L 9.21875 -41.1875 L 9.21875 -22.859375 L 33.640625 -22.859375 L 33.640625 -41.1875 Z M 37.640625 -41.1875 "/></g></g></g><g fill="#000000" fill-opacity="1"><g transform="translate(964.160575, 946.558025)"><g><path d="M 32.828125 -3.59375 L 32.828125 0 L 5.15625 0 L 5.15625 -41.1875 L 32.3125 -41.1875 L 32.3125 -37.578125 L 9.21875 -37.578125 L 9.21875 -22.734375 L 29.34375 -22.734375 L 29.34375 -19.3125 L 9.21875 -19.3125 L 9.21875 -3.59375 Z M 32.828125 -3.59375 "/></g></g></g><g fill="#000000" fill-opacity="1"><g transform="translate(1031.032197, 946.558025)"><g><path d="M 9.21875 -33.703125 L 9.21875 0 L 5.15625 0 L 5.15625 -41.1875 L 8.53125 -41.1875 L 35.546875 -6.84375 L 35.546875 -41.125 L 39.609375 -41.125 L 39.609375 0 L 35.84375 0 Z M 9.21875 -33.703125 "/></g></g></g><g fill="#000000" fill-opacity="1"><g transform="translate(1107.36561, 946.558025)"><g/></g></g><g fill="#000000" fill-opacity="1"><g transform="translate(1153.706601, 946.558025)"><g/></g></g><g fill="#000000" fill-opacity="1"><g transform="translate(1200.049199, 946.558025)"><g><path d="M 20.640625 -40.890625 L 24.46875 -40.890625 L 30.28125 -26.28125 L 36.140625 -40.890625 L 40.015625 -40.890625 L 32.828125 -23.3125 L 40.71875 -4.703125 L 55.625 -41.1875 L 60.03125 -41.1875 L 42.578125 0 L 38.96875 0 L 30.328125 -20.359375 L 21.640625 0 L 18.09375 0 L 0.703125 -41.1875 L 5.046875 -41.1875 L 20.015625 -4.703125 L 27.84375 -23.3125 Z M 20.640625 -40.890625 "/></g></g></g><g fill="#000000" fill-opacity="1"><g transform="translate(1292.265145, 946.558025)"><g><path d="M 21.75 0.296875 C 18.851562 0.296875 16.222656 -0.28125 13.859375 -1.4375 C 11.503906 -2.601562 9.472656 -4.179688 7.765625 -6.171875 C 6.066406 -8.160156 4.753906 -10.398438 3.828125 -12.890625 C 2.898438 -15.390625 2.4375 -17.957031 2.4375 -20.59375 C 2.4375 -23.332031 2.921875 -25.945312 3.890625 -28.4375 C 4.859375 -30.9375 6.21875 -33.160156 7.96875 -35.109375 C 9.726562 -37.066406 11.785156 -38.613281 14.140625 -39.75 C 16.503906 -40.894531 19.0625 -41.46875 21.8125 -41.46875 C 24.707031 -41.46875 27.332031 -40.867188 29.6875 -39.671875 C 32.050781 -38.472656 34.070312 -36.867188 35.75 -34.859375 C 37.4375 -32.847656 38.742188 -30.601562 39.671875 -28.125 C 40.597656 -25.65625 41.0625 -23.125 41.0625 -20.53125 C 41.0625 -17.78125 40.578125 -15.160156 39.609375 -12.671875 C 38.640625 -10.179688 37.285156 -7.957031 35.546875 -6 C 33.804688 -4.050781 31.757812 -2.515625 29.40625 -1.390625 C 27.050781 -0.265625 24.5 0.296875 21.75 0.296875 Z M 6.5 -20.59375 C 6.5 -18.34375 6.863281 -16.179688 7.59375 -14.109375 C 8.332031 -12.046875 9.378906 -10.210938 10.734375 -8.609375 C 12.085938 -7.003906 13.703125 -5.726562 15.578125 -4.78125 C 17.453125 -3.832031 19.507812 -3.359375 21.75 -3.359375 C 24.101562 -3.359375 26.21875 -3.851562 28.09375 -4.84375 C 29.96875 -5.832031 31.570312 -7.144531 32.90625 -8.78125 C 34.25 -10.425781 35.265625 -12.273438 35.953125 -14.328125 C 36.648438 -16.378906 37 -18.46875 37 -20.59375 C 37 -22.832031 36.628906 -24.976562 35.890625 -27.03125 C 35.160156 -29.082031 34.109375 -30.914062 32.734375 -32.53125 C 31.367188 -34.15625 29.753906 -35.429688 27.890625 -36.359375 C 26.035156 -37.296875 23.988281 -37.765625 21.75 -37.765625 C 19.425781 -37.765625 17.328125 -37.28125 15.453125 -36.3125 C 13.578125 -35.34375 11.972656 -34.035156 10.640625 -32.390625 C 9.304688 -30.742188 8.28125 -28.894531 7.5625 -26.84375 C 6.851562 -24.800781 6.5 -22.71875 6.5 -20.59375 Z M 6.5 -20.59375 "/></g></g></g><g fill="#000000" fill-opacity="1"><g transform="translate(1367.372232, 946.558025)"><g><path d="M 37.640625 -41.1875 L 37.640625 0 L 33.640625 0 L 33.640625 -19.25 L 9.21875 -19.25 L 9.21875 0 L 5.15625 0 L 5.15625 -41.1875 L 9.21875 -41.1875 L 9.21875 -22.859375 L 33.640625 -22.859375 L 33.640625 -41.1875 Z M 37.640625 -41.1875 "/></g></g></g><g fill="#000000" fill-opacity="1"><g transform="translate(1441.725371, 946.558025)"><g><path d="M 9.21875 -33.703125 L 9.21875 0 L 5.15625 0 L 5.15625 -41.1875 L 8.53125 -41.1875 L 35.546875 -6.84375 L 35.546875 -41.125 L 39.609375 -41.125 L 39.609375 0 L 35.84375 0 Z M 9.21875 -33.703125 "/></g></g></g><g fill="#000000" fill-opacity="1"><g transform="translate(1518.050361, 946.558025)"><g><path d="M 32.828125 -3.59375 L 32.828125 0 L 5.15625 0 L 5.15625 -41.1875 L 32.3125 -41.1875 L 32.3125 -37.578125 L 9.21875 -37.578125 L 9.21875 -22.734375 L 29.34375 -22.734375 L 29.34375 -19.3125 L 9.21875 -19.3125 L 9.21875 -3.59375 Z M 32.828125 -3.59375 "/></g></g></g><g fill="#000000" fill-opacity="1"><g transform="translate(1584.922029, 946.558025)"><g><path d="M 9.21875 -33.703125 L 9.21875 0 L 5.15625 0 L 5.15625 -41.1875 L 8.53125 -41.1875 L 35.546875 -6.84375 L 35.546875 -41.125 L 39.609375 -41.125 L 39.609375 0 L 35.84375 0 Z M 9.21875 -33.703125 "/></g></g></g><g clip-path="url(#cf1869bc7c)"><g clip-path="url(#20d0120839)"><g transform="matrix(1, 0, 0, 1, 1134, 918)"><g clip-path="url(#dbf8d1996f)"><g clip-path="url(#5420bc56d1)"><g clip-path="url(#50f3830709)"><path fill="#ffffff" d="M 0.683594 0.398438 L 18 0.398438 L 18 17.714844 L 0.683594 17.714844 Z M 0.683594 0.398438 " fill-opacity="1" fill-rule="nonzero"/></g></g></g></g></g></g><g transform="matrix(1, 0, 0, 1, 1392, 462)"><g clip-path="url(#a146b7449a)"><g fill="#000000" fill-opacity="1"><g transform="translate(1.199597, 301.501298)"><g><path d="M 29.734375 0 L 29.734375 -227.015625 L 46.046875 -227.015625 L 46.046875 -14.703125 L 181.625 -14.703125 L 181.625 0 Z M 29.734375 0 "/></g></g></g><g fill="#000000" fill-opacity="1"><g transform="translate(325.106687, 301.501298)"><g><path d="M 29.734375 0 L 29.734375 -227.015625 L 46.046875 -227.015625 L 46.046875 -14.703125 L 181.625 -14.703125 L 181.625 0 Z M 29.734375 0 "/></g></g></g></g></g><path stroke-linecap="butt" transform="matrix(0.75, 0, 0, 0.75, 1077.385157, 836.524827)" fill="none" stroke-linejoin="miter" d="M 0.00208194 7.498148 L 175.887514 7.498148 " stroke="#b8925a" stroke-width="15" stroke-opacity="1" stroke-miterlimit="4"/></svg>